<?xml version="1.0" encoding="UTF-8" standalone="no"?>
<!-- Created with Inkscape (http://www.inkscape.org/) -->

<svg
   xmlns:osb="http://www.openswatchbook.org/uri/2009/osb"
   xmlns:dc="http://purl.org/dc/elements/1.1/"
   xmlns:cc="http://creativecommons.org/ns#"
   xmlns:rdf="http://www.w3.org/1999/02/22-rdf-syntax-ns#"
   xmlns:svg="http://www.w3.org/2000/svg"
   xmlns="http://www.w3.org/2000/svg"
   xmlns:sodipodi="http://sodipodi.sourceforge.net/DTD/sodipodi-0.dtd"
   xmlns:inkscape="http://www.inkscape.org/namespaces/inkscape"
   width="210mm"
   height="297mm"
   viewBox="0 0 210 297"
   version="1.1"
   id="svg8"
   inkscape:version="0.92.4 (5da689c313, 2019-01-14)"
   sodipodi:docname="footagsLogo.svg"
   inkscape:export-filename="C:\Users\essex\Documents\server\pruebas\php\footags\img\footagsNav.png"
   inkscape:export-xdpi="69.089333"
   inkscape:export-ydpi="69.089333">
  <defs
     id="defs2">
    <linearGradient
       id="linearGradient2324"
       osb:paint="solid">
      <stop
         style="stop-color:#ffcc00;stop-opacity:1;"
         offset="0"
         id="stop2322" />
    </linearGradient>
  </defs>
  <sodipodi:namedview
     id="base"
     pagecolor="#ffffff"
     bordercolor="#666666"
     borderopacity="1.0"
     inkscape:pageopacity="0.0"
     inkscape:pageshadow="2"
     inkscape:zoom="1.4"
     inkscape:cx="368.81826"
     inkscape:cy="540.14162"
     inkscape:document-units="mm"
     inkscape:current-layer="layer1"
     showgrid="false"
     inkscape:window-width="1920"
     inkscape:window-height="1057"
     inkscape:window-x="1432"
     inkscape:window-y="-8"
     inkscape:window-maximized="1"
     showguides="true"
     inkscape:guide-bbox="true" />
  <metadata
     id="metadata5">
    <rdf:RDF>
      <cc:Work
         rdf:about="">
        <dc:format>image/svg+xml</dc:format>
        <dc:type
           rdf:resource="http://purl.org/dc/dcmitype/StillImage" />
        <dc:title />
      </cc:Work>
    </rdf:RDF>
  </metadata>
  <g
     inkscape:label="Capa 1"
     inkscape:groupmode="layer"
     id="layer1">
    <text
       xml:space="preserve"
       style="font-style:normal;font-variant:normal;font-weight:normal;font-stretch:normal;font-size:10.58333302px;line-height:1.25;font-family:'Happy Monkey';-inkscape-font-specification:'Happy Monkey, Normal';font-variant-ligatures:normal;font-variant-caps:normal;font-variant-numeric:normal;font-feature-settings:normal;text-align:start;letter-spacing:0px;word-spacing:0px;writing-mode:lr-tb;text-anchor:start;fill:#ffcc00;fill-opacity:1;stroke:none;stroke-width:0.26458332"
       x="105.30415"
       y="108.01189"
       id="text3737"><tspan
         sodipodi:role="line"
         id="tspan3735"
         x="105.30415"
         y="117.67851"
         style="font-style:normal;font-variant:normal;font-weight:normal;font-stretch:normal;font-size:10.58333302px;font-family:'Happy Monkey';-inkscape-font-specification:'Happy Monkey, Normal';font-variant-ligatures:normal;font-variant-caps:normal;font-variant-numeric:normal;font-feature-settings:normal;text-align:start;writing-mode:lr-tb;text-anchor:start;fill:#ffcc00;fill-opacity:1;stroke-width:0.26458332" /></text>
    <text
       xml:space="preserve"
       style="font-style:normal;font-weight:normal;font-size:10.58333302px;line-height:1.25;font-family:sans-serif;letter-spacing:0px;word-spacing:0px;fill:#000000;fill-opacity:1;stroke:none;stroke-width:0.26458332"
       x="110.46354"
       y="105.27158"
       id="text4548"><tspan
         sodipodi:role="line"
         id="tspan4546"
         x="110.46354"
         y="114.63535"
         style="stroke-width:0.26458332" /></text>
    <path
       style="fill:#ffcc00;fill-opacity:1;stroke-width:1.14801216"
       d="M 192.85494,59.897692 V 104.31769 H 97.270832 v 3.49692 H 196.87439 V 59.897692 Z"
       id="rect3703-8-2"
       inkscape:connector-curvature="0"
       inkscape:export-filename="/Applications/XAMPP/htdocs/footags/img/footags500.png"
       inkscape:export-xdpi="55.789127"
       inkscape:export-ydpi="55.789127" />
    <path
       style="fill:#ffcc00;fill-opacity:1;stroke-width:1.14801216"
       d="m 188.34673,55.833512 v 44.14982 H 92.591655 v 3.767288 H 192.19571 V 55.833512 Z"
       id="rect3703-8"
       inkscape:connector-curvature="0"
       inkscape:export-filename="/Applications/XAMPP/htdocs/footags/img/footags500.png"
       inkscape:export-xdpi="55.789127"
       inkscape:export-ydpi="55.789127" />
    <path
       style="fill:#ffcc00;fill-opacity:1;stroke-width:1.14801204"
       d="m 88.081315,51.404582 v 47.91992 h 99.603705 v -47.91992 z m 7.588312,4.60384 c 0.521098,0 0.946527,0.17722 1.291129,0.52146 0.349128,0.35117 0.518763,0.78721 0.518763,1.33189 v 6.50572 h 4.480701 c 0.48981,0 0.88921,0.15795 1.20517,0.47392 0.31732,0.28861 0.4776,0.66073 0.4776,1.12006 0,0.46063 -0.16339,0.83301 -0.4776,1.1197 -0.31707,0.28901 -0.71713,0.42875 -1.20517,0.42875 h -4.480701 v 11.24226 c 0,1.34906 0.387418,2.46682 1.164511,3.35647 0.803998,0.86186 1.80953,1.29119 3.01554,1.29119 h 1.2466 c 0.48933,0 0.88954,0.17904 1.20522,0.52355 0.31856,0.34771 0.47737,0.79001 0.47737,1.33524 0,0.54491 -0.19545,0.99085 -0.60019,1.33603 -0.36846,0.31747 -0.86237,0.47124 -1.46533,0.47124 h -0.86037 c -1.49324,0 -2.829085,-0.35981 -4.006195,-1.07544 -1.177161,-0.71733 -2.111105,-1.70815 -2.800297,-2.97108 -0.659969,-1.2635 -0.990318,-2.68297 -0.990318,-4.26159 v -11.24263 h -2.54097 c -0.489002,0 -0.88975,-0.14528 -1.204949,-0.4282 -0.318105,-0.28799 -0.4764,-0.6606 -0.4764,-1.11991 0,-0.4594 0.162878,-0.83319 0.4764,-1.12014 0.317232,-0.31835 0.717068,-0.47302 1.204949,-0.47302 h 2.54097 v -6.50559 c 0,-0.54496 0.164821,-0.9875 0.476099,-1.33188 0.35225,-0.35083 0.789469,-0.52178 1.335022,-0.52178 z m 25.035653,7.27738 c 2.23971,0 4.24794,0.53465 6.02799,1.595 1.80901,1.03336 3.23155,2.45282 4.26527,4.2611 1.06221,1.80956 1.60699,3.86432 1.63646,6.16131 v 9.94831 c 0,0.54475 -0.18278,0.99096 -0.55761,1.33538 -0.34854,0.31858 -0.77427,0.47425 -1.29108,0.47425 -0.54481,0 -0.99065,-0.16013 -1.33526,-0.47425 -0.35044,-0.34708 -0.5226,-0.78906 -0.5226,-1.33538 v -2.28467 c -0.84506,1.14132 -1.89264,2.0906 -3.14161,2.84466 -1.63674,0.9765 -3.50505,1.46151 -5.60092,1.46151 -2.18192,0 -4.13454,-0.51874 -5.8565,-1.55005 -1.72276,-1.06278 -3.08672,-2.49754 -4.09107,-4.3064 -1.00532,-1.80963 -1.50653,-3.84493 -1.50653,-6.11336 0,-2.29699 0.52112,-4.35175 1.55047,-6.16131 1.06198,-1.80828 2.49755,-3.22774 4.30628,-4.2611 1.80882,-1.06261 3.84843,-1.595 6.11607,-1.595 z m 29.1034,0 c 2.2967,0 4.33301,0.51858 6.1127,1.55013 1.80879,1.00515 3.21657,2.41236 4.22114,4.22122 1.03363,1.80874 1.56643,3.89177 1.59498,6.24606 v 8.95723 c 0,2.29804 -0.51819,4.36463 -1.55023,6.20269 -1.03367,1.86607 -2.44089,3.34127 -4.22118,4.43222 -1.77993,1.09122 -3.8311,1.63945 -6.15741,1.63945 -2.18163,0 -4.15011,-0.41796 -5.90101,-1.24933 -1.72285,-0.83288 -3.17401,-1.99755 -4.35094,-3.49108 -0.31869,-0.39882 -0.44195,-0.83133 -0.38654,-1.29007 0.009,-0.43043 0.29032,-0.77705 0.68969,-1.03521 0.42746,-0.28861 0.88885,-0.38622 1.37614,-0.3021 0.48879,0.0855 0.87783,0.33512 1.16469,0.73445 0.80433,1.00409 1.83808,1.80803 3.10104,2.41092 1.26307,0.60136 2.72643,0.90496 4.39156,0.90496 1.52159,0 2.89763,-0.36867 4.13233,-1.11966 1.263,-0.71832 2.25717,-1.76796 2.97487,-3.14603 0.74605,-1.37781 1.11617,-3.00006 1.11617,-4.86626 v -2.02457 c -0.87808,1.58744 -2.04986,2.85749 -3.53108,3.79078 -1.54989,0.9468 -3.31572,1.42003 -5.29611,1.42003 -2.23967,0 -4.21963,-0.50273 -5.94271,-1.50621 -1.72266,-1.03378 -3.07077,-2.45279 -4.04668,-4.26142 -0.97644,-1.80861 -1.46546,-3.87628 -1.46546,-6.20222 0,-2.35414 0.52134,-4.43739 1.55109,-6.24629 1.03327,-1.80869 2.44059,-3.21567 4.22054,-4.22083 1.80919,-1.03356 3.87613,-1.55013 6.20208,-1.55013 z m 26.55875,0 c 1.92403,0 3.59009,0.33242 4.99651,0.99027 1.40634,0.63109 2.54021,1.49436 3.40147,2.58476 0.35227,0.39977 0.49331,0.83187 0.43105,1.29131 -0.009,0.42751 -0.28844,0.79192 -0.68847,1.07932 -0.40123,0.22762 -0.86402,0.30255 -1.38048,0.2139 -0.48898,-0.0839 -0.9009,-0.31979 -1.24599,-0.6897 -0.71843,-0.7748 -1.53758,-1.33556 -2.45615,-1.68011 -0.91834,-0.3499 -1.96776,-0.51836 -3.14479,-0.51836 -1.46429,0 -2.6697,0.28791 -3.61675,0.86071 -0.91964,0.57151 -1.37971,1.32156 -1.37971,2.24064 0,0.63351 0.16299,1.17615 0.47764,1.63605 0.34917,0.46248 0.94789,0.87612 1.81037,1.24946 0.85991,0.34907 2.0646,0.65871 3.61575,0.9456 2.15308,0.36846 3.84652,0.89052 5.08124,1.5507 1.26319,0.66006 2.16925,1.45139 2.71512,2.37016 0.54461,0.89025 0.81602,1.88021 0.81602,2.97097 0,1.32098 -0.38452,2.49801 -1.16145,3.53091 -0.74612,1.03374 -1.82381,1.85223 -3.22992,2.45579 -1.37799,0.60215 -3.00057,0.90169 -4.86704,0.90169 -1.80858,0 -3.56151,-0.28589 -5.25535,-0.86076 -1.66534,-0.60155 -2.99796,-1.44963 -4.00225,-2.54066 -0.35151,-0.36838 -0.48858,-0.80356 -0.42885,-1.29155 0.009,-0.48894 0.28662,-0.90524 0.68677,-1.24984 0.45908,-0.34823 0.92013,-0.47434 1.37916,-0.38303 0.48818,0.0185 0.9054,0.25377 1.24971,0.59973 0.60198,0.71797 1.46285,1.30575 2.58232,1.76556 1.11953,0.42889 2.35581,0.64538 3.70489,0.64538 1.98133,0 3.42911,-0.33248 4.34784,-0.99004 0.91837,-0.68917 1.39157,-1.52039 1.42088,-2.49608 0.004,-0.97657 -0.42857,-1.79545 -1.37615,-2.45559 -0.91964,-0.66054 -2.4983,-1.17723 -4.73758,-1.55053 -2.89988,-0.49041 -5.02619,-1.30743 -6.37621,-2.4557 -1.31997,-1.14864 -1.97988,-2.52467 -1.97988,-4.1321 0,-1.46371 0.39896,-2.68496 1.20521,-3.66126 0.80437,-0.97591 1.8537,-1.70728 3.14538,-2.19551 1.32013,-0.48824 2.7403,-0.73414 4.2617,-0.73414 z m -55.66215,3.31592 c -1.57875,0 -3.00207,0.38762 -4.26532,1.164 -1.26302,0.74689 -2.26536,1.7805 -3.01188,3.10133 -0.74628,1.29217 -1.12038,2.77093 -1.12038,4.43616 0,1.63669 0.3684,3.11563 1.12038,4.43606 0.74652,1.32075 1.74886,2.35442 3.01188,3.10149 1.26325,0.74618 2.68657,1.11639 4.26532,1.11639 1.57923,0 2.99922,-0.3665 4.26223,-1.11639 1.26321,-0.74707 2.25417,-1.78074 2.97125,-3.10149 0.7175,-1.32043 1.07908,-2.79937 1.07908,-4.43606 0,-1.66523 -0.36185,-3.14399 -1.07908,-4.43616 -0.71708,-1.32083 -1.70804,-2.35444 -2.97125,-3.10133 -1.26301,-0.77495 -2.683,-1.164 -4.26223,-1.164 z m 29.1034,0 c -1.63657,0 -3.08694,0.36878 -4.35081,1.12029 -1.26328,0.71749 -2.2532,1.73928 -2.97144,3.05969 -0.71745,1.32089 -1.07537,2.82792 -1.07537,4.52151 0,1.69461 0.35998,3.20072 1.07537,4.52091 0.71824,1.29247 1.70816,2.31083 2.97144,3.05759 1.26387,0.71766 2.71424,1.07544 4.35081,1.07544 1.60781,0 3.0432,-0.35996 4.30638,-1.07544 1.26311,-0.74676 2.23857,-1.76512 2.92694,-3.05759 0.71767,-1.32019 1.07547,-2.8263 1.07547,-4.52091 0,-1.69359 -0.36008,-3.20062 -1.07547,-4.52151 -0.68837,-1.32041 -1.66383,-2.3422 -2.92694,-3.05969 -1.26318,-0.74673 -2.69857,-1.12029 -4.30638,-1.12029 z"
       id="rect3703"
       inkscape:connector-curvature="0"
       inkscape:export-filename="/Applications/XAMPP/htdocs/footags/img/footags500.png"
       inkscape:export-xdpi="55.789127"
       inkscape:export-ydpi="55.789127" />
    <text
       xml:space="preserve"
       style="font-style:normal;font-variant:normal;font-weight:500;font-stretch:normal;font-size:45.82565689px;line-height:1.25;font-family:Comfortaa;-inkscape-font-specification:'Comfortaa, Medium';font-variant-ligatures:normal;font-variant-caps:normal;font-variant-numeric:normal;font-feature-settings:normal;text-align:start;letter-spacing:0px;word-spacing:0px;writing-mode:lr-tb;text-anchor:start;fill:#ffcc00;fill-opacity:1;stroke:none;stroke-width:1.14564133"
       x="13.935187"
       y="88.699142"
       id="text4556"
       inkscape:export-xdpi="55.789127"
       inkscape:export-ydpi="55.789127"
       inkscape:export-filename="/Applications/XAMPP/htdocs/footags/img/footags500.png"><tspan
         sodipodi:role="line"
         id="tspan4554"
         x="13.935187"
         y="88.699142"
         style="font-style:normal;font-variant:normal;font-weight:500;font-stretch:normal;font-size:45.82565689px;font-family:Comfortaa;-inkscape-font-specification:'Comfortaa, Medium';font-variant-ligatures:normal;font-variant-caps:normal;font-variant-numeric:normal;font-feature-settings:normal;text-align:start;writing-mode:lr-tb;text-anchor:start;fill:#ffcc00;fill-opacity:1;stroke-width:1.14564133">f</tspan></text>
    <text
       xml:space="preserve"
       style="font-style:normal;font-variant:normal;font-weight:500;font-stretch:normal;font-size:43.4798317px;line-height:1.25;font-family:Comfortaa;-inkscape-font-specification:'Comfortaa, Medium';font-variant-ligatures:normal;font-variant-caps:normal;font-variant-numeric:normal;font-feature-settings:normal;text-align:start;letter-spacing:0px;word-spacing:0px;writing-mode:lr-tb;text-anchor:start;fill:#ffcc00;fill-opacity:1;stroke:none;stroke-width:1.08699524"
       x="29.134224"
       y="-63.309814"
       id="text4560"
       transform="scale(1,-1)"
       inkscape:export-xdpi="55.789127"
       inkscape:export-ydpi="55.789127"
       inkscape:export-filename="/Applications/XAMPP/htdocs/footags/img/footags500.png"><tspan
         sodipodi:role="line"
         id="tspan4558"
         x="29.134224"
         y="-63.309814"
         style="font-style:normal;font-variant:normal;font-weight:500;font-stretch:normal;font-size:43.4798317px;font-family:Comfortaa;-inkscape-font-specification:'Comfortaa, Medium';font-variant-ligatures:normal;font-variant-caps:normal;font-variant-numeric:normal;font-feature-settings:normal;text-align:start;writing-mode:lr-tb;text-anchor:start;fill:#ffcc00;fill-opacity:1;stroke-width:1.08699524">o</tspan></text>
    <text
       xml:space="preserve"
       style="font-style:normal;font-variant:normal;font-weight:500;font-stretch:normal;font-size:43.4798317px;line-height:1.25;font-family:Comfortaa;-inkscape-font-specification:'Comfortaa, Medium';font-variant-ligatures:normal;font-variant-caps:normal;font-variant-numeric:normal;font-feature-settings:normal;text-align:start;letter-spacing:0px;word-spacing:0px;writing-mode:lr-tb;text-anchor:start;fill:#ffcc00;fill-opacity:1;stroke:none;stroke-width:1.08699524"
       x="58.286079"
       y="87.276855"
       id="text4560-8"
       inkscape:export-xdpi="55.789127"
       inkscape:export-ydpi="55.789127"
       inkscape:export-filename="/Applications/XAMPP/htdocs/footags/img/footags500.png"><tspan
         sodipodi:role="line"
         id="tspan4558-2"
         x="58.286079"
         y="87.276855"
         style="font-style:normal;font-variant:normal;font-weight:500;font-stretch:normal;font-size:43.4798317px;font-family:Comfortaa;-inkscape-font-specification:'Comfortaa, Medium';font-variant-ligatures:normal;font-variant-caps:normal;font-variant-numeric:normal;font-feature-settings:normal;text-align:start;writing-mode:lr-tb;text-anchor:start;fill:#ffcc00;fill-opacity:1;stroke-width:1.08699524">o</tspan></text>
    <ellipse
       style="fill:none;fill-opacity:1;stroke:#ffcc00;stroke-width:0.35797894;stroke-miterlimit:4;stroke-dasharray:none;stroke-opacity:1"
       id="path54-5"
       cx="-878.05554"
       cy="-70.569313"
       rx="4.5835109"
       ry="4.5835104"
       inkscape:export-filename="/Applications/XAMPP/htdocs/footags/img/user175.png"
       inkscape:export-xdpi="466.66705"
       inkscape:export-ydpi="466.66705" />
    <rect
       style="fill:#ffcc00;fill-opacity:1;stroke:#ffcc00;stroke-width:1.32291663;stroke-miterlimit:4;stroke-dasharray:none;stroke-opacity:1"
       id="rect33"
       width="54.248913"
       height="54.248913"
       x="148.59528"
       y="130.52797"
       rx="3.3905585"
       inkscape:export-xdpi="69.089333"
       inkscape:export-ydpi="69.089333" />
    <rect
       style="fill:#ffcc00;fill-opacity:1;stroke:none;stroke-width:1.06394303;stroke-miterlimit:4;stroke-dasharray:none;stroke-opacity:1"
       id="rect4546"
       width="45.296989"
       height="5"
       x="24.18136"
       y="141.87183"
       rx="3.1456232"
       inkscape:export-xdpi="69.089333"
       inkscape:export-ydpi="69.089333" />
    <rect
       style="fill:#ffcc00;fill-opacity:1;stroke:none;stroke-width:1.06394291;stroke-miterlimit:4;stroke-dasharray:none;stroke-opacity:1"
       id="rect4546-6"
       width="45.296989"
       height="5"
       x="24.18136"
       y="157.88239"
       rx="3.1456232"
       inkscape:export-xdpi="69.089333"
       inkscape:export-ydpi="69.089333" />
    <rect
       style="fill:#ffcc00;fill-opacity:1;stroke:none;stroke-width:1.06394291;stroke-miterlimit:4;stroke-dasharray:none;stroke-opacity:1"
       id="rect4546-9"
       width="45.296989"
       height="5"
       x="24.18136"
       y="173.89293"
       rx="3.1456232"
       inkscape:export-xdpi="69.089333"
       inkscape:export-ydpi="69.089333" />
    <g
       id="g3796"
       inkscape:export-xdpi="466.66699"
       inkscape:export-ydpi="466.66699">
      <rect
         transform="matrix(0.86094563,0.50869699,-0.31333453,0.94964281,0,0)"
         inkscape:export-ydpi="69.089333"
         inkscape:export-xdpi="69.089333"
         rx="1.9167209"
         y="68.596542"
         x="149.55984"
         height="3.6961989"
         width="27.600788"
         id="rect4546-7"
         style="fill:#ffcc00;fill-opacity:1;stroke:none;stroke-width:0.714064;stroke-miterlimit:4;stroke-dasharray:none;stroke-opacity:1" />
      <rect
         transform="matrix(-0.86094563,0.50869699,0.31333453,0.94964281,0,0)"
         inkscape:export-ydpi="69.089333"
         inkscape:export-xdpi="69.089333"
         rx="1.9167209"
         y="181.09285"
         x="-60.449619"
         height="3.6961989"
         width="27.600788"
         id="rect4546-7-0"
         style="fill:#ffcc00;fill-opacity:1;stroke:none;stroke-width:0.714064;stroke-miterlimit:4;stroke-dasharray:none;stroke-opacity:1" />
      <rect
         transform="matrix(0.86094563,-0.50869699,-0.31333453,-0.94964281,0,0)"
         inkscape:export-ydpi="69.089333"
         inkscape:export-xdpi="69.089333"
         rx="1.9167209"
         y="-213.94273"
         x="46.794987"
         height="3.6961989"
         width="27.600788"
         id="rect4546-7-7"
         style="fill:#ffcc00;fill-opacity:1;stroke:none;stroke-width:0.714064;stroke-miterlimit:4;stroke-dasharray:none;stroke-opacity:1" />
      <rect
         transform="matrix(-0.86094567,-0.50869691,0.31333447,-0.94964283,0,0)"
         inkscape:export-ydpi="69.089333"
         inkscape:export-xdpi="69.089333"
         rx="1.9167209"
         y="-101.38976"
         x="-163.32033"
         height="3.6961992"
         width="27.60079"
         id="rect4546-7-0-0"
         style="fill:#ffcc00;fill-opacity:1;stroke:none;stroke-width:0.714064;stroke-miterlimit:4;stroke-dasharray:none;stroke-opacity:1" />
    </g>
  </g>
</svg>
